A suspense horror film set in a small coastal town where, after a series of gory murders commited by mobs of townspeople against visiting tourists, the corpses begin to come back to life.




 
http://www.imdb.com/title/tt0082242/













Media Info:


Format                                   : AVI
Format/Info                              : Audio Video Interleave
Format profile                           : OpenDML
Format settings                          : rec
File size                                : 702 MiB
Duration                                 : 1h 30mn
Overall bit rate                         : 1 088 Kbps
Writing application                      : AVI-Mux GUI 1.17.7, Aug  8 2006  20:59:17

Video
ID                                       : 0
Format                                   : MPEG-4 Visual
Format profile                           : Advanced Simple@L5
Format settings, BVOP                    : 2
Format settings, QPel                    : No
Format settings, GMC                     : No warppoints
Format settings, Matrix                  : Default (H.263)
Codec ID                                 : XVID
Codec ID/Hint                            : XviD
Duration                                 : 1h 30mn
Bit rate                                 : 957 Kbps
Width                                    : 592 pixels
Height                                   : 320 pixels
Display aspect ratio                     : 1.850
Frame rate                               : 25.000 fps
Color space                              : YUV
Chroma subsampling                       : 4:2:0
Bit depth                                : 8 bits
Scan type                                : Progressive
Compression mode                         : Lossy
Bits/(Pixel*Frame)                       : 0.202
Stream size                              : 617 MiB (88%)
Writing library                          : XviD 1.2.1 (UTC 2008-12-04)

Audio
ID                                       : 1
Format                                   : MPEG Audio
Format version                           : Version 1
Format profile                           : Layer 3
Mode                                     : Joint stereo
Mode extension                           : MS Stereo
Codec ID                                 : 55
Codec ID/Hint                            : MP3
Duration                                 : 1h 30mn
Bit rate mode                            : Constant
Bit rate                                 : 128 Kbps
Channel(s)                               : 2 channels
Sampling rate                            : 48.0 KHz
Compression mode                         : Lossy
Stream size                              : 82.5 MiB (12%)
Alignment                                : Aligned on interleaves
Interleave, duration                     : 801 ms (20.01 video frames)
Interleave, preload duration             : 216 ms
Title                                    : VTS_01_1 T80 2_0ch 192Kbps DELAY 0ms
Writing library                          : LAME3.98r
Encoding settings                        : -m j -V 4 -q 2 -lowpass 17 -b 128
